<svg xmlns="http://www.w3.org/2000/svg" width="100" height="100" viewBox="0 0 100 100">
    <path fill="#EE3E96" d="M99.9 97.2c0 1.3-1 2.8-2.7 2.8H2.7C1 99.9 0 98.5 0 97.2V2.8C0 1.5 1 0 2.7 0h94.6C99 0 100 1.5 100 2.8l-.1 94.4"/>
    <path fill="#FFF" d="M58.6 70c-2.5 2.3-5.8 2.5-9.1 2.5H37.7V53.4h11.7c3.7 0 7.3.2 9.8 2.9 1.6 1.8 2.6 4.1 2.6 6.5-.1 2.6-1.1 5.4-3.2 7.2M37.7 27.4h10.2c6.4 0 10.7 2.1 10.7 8.1 0 6.2-4 8.4-10.7 8.4H37.7V27.4zm25 19.6c8.1-1.4 12.7-5.1 12.7-13.6 0-5.2-1.9-10.8-6.2-13.9-5.4-3.8-11.5-3.8-17.9-3.8H22.6c-.7 0-1.3.6-1.3 1.3v65.8c0 .7.6 1.3 1.3 1.3h30.5c6.5 0 11.8-.1 17.4-3.8 5.3-3.5 8.1-8.6 8.1-15 .1-10-6.1-16.8-15.9-18.3"/>
</svg>
