<svg xmlns="http://www.w3.org/2000/svg" width="100" height="100" viewBox="0 0 100 100">
    <path fill="#004E3B" d="M98.8 29.4c-1.2-8.1-3.6-15.6-8.1-20.1C86 4.6 77.9 2.2 69.4 1.1 62.8.2 56 0 50.2 0H50c-3.6 0-11.3 0-19.1 1.1C20.7 2.5 13.5 5.3 9.4 9.4S2.5 20.7 1.1 30.9C0 38.7 0 46.3 0 50v.1c0 3.7 0 11.3 1.1 19.1 1.4 10.1 4.2 17.3 8.3 21.4 4.1 4.1 11.3 6.9 21.4 8.3 7.8 1.1 15.5 1.1 19.1 1.1h.3c5.8 0 12.7-.2 19.2-1.1 8.5-1.2 16.5-3.5 21.2-8.3 4.7-4.7 7.1-12.8 8.3-21.3.9-6.5 1.1-13.4 1.1-19.2v-.4c0-6.1-.2-13.4-1.2-20.3"/>
    <path fill="#FFF" d="M55.8 67.7c5.4 0 11.6-1.5 13.3-1.9.2-.1.5-.1.6-.1.8 0 1.2.4 1.3.9l1.4 7.2c0 .1.1.4.1.5 0 .7-.3 1.2-1.5 1.6-2.5.8-8.2 2.5-18.3 2.5-20.1 0-27.8-7.7-27.8-29.1 0-21.4 7.7-29.1 27.7-29.1 10.102 0 15.9 1.9 18.4 2.7 1.2.4 1.5.9 1.5 1.6 0 .2-.1.4-.1.5L71 32.5c-.1.6-.5 1-1.3 1-.2 0-.4-.1-.6-.1-1.7-.5-7.9-2.2-13.3-2.2-12.3 0-15 5.5-15 18.3s2.7 18.2 15 18.2"/>
</svg>
