<svg xmlns="http://www.w3.org/2000/svg" width="100" height="100" viewBox="0 0 100 100">
    <path fill="#D71920" d="M33.7 91C12.1 81.6-16.6 57.6 12 30.8S69.4 2.7 69.4 2.7s50.5-3.9 21.7 60.2C72.7 108 51 98.5 33.7 91z"/>
    <path fill="#FFF" d="M54.6 28.1H41.7c-8.1.3-14 6.3-14 14.4 0 5.9 4.8 8.4 10.4 11.3 2.6 1.4 3.1 2.3 3.1 3.3 0 2-1.8 3.8-3.8 3.8H24.2c-1 0-2 .6-2.2 1.7l-.9 5.1v.4c0 1 1 1.7 2 1.7h13c8.4 0 14.6-6.1 14.6-14.4 0-4.8-2.6-8.1-8.4-10.9l-1-.5c-3.1-1.5-4.2-2.1-4.2-3.3 0-1.9 1.9-3.8 3.9-3.7h12.3c1 0 2.3-.6 2.5-1.7l.9-4.9.1-.5c.1-1.2-1.2-1.8-2.2-1.8zm7.3 0c-.9 0-1.9.6-2.2 1.5l-.1.3-6.4 37.7-.1.5c-.1 1.2.7 1.7 1.7 1.7h5.7c1.1 0 1.8-.6 1.9-1.7 0 0 2.4-14.2 2.5-15H76c1.1 0 2.1-.7 2.2-1.7l.9-5.4v-.3c0-1-1-1.7-2-1.7H66.4c.2-1.3 1.1-6.4 1.2-7.1h13.7c1 0 2-.6 2.2-1.7l1-4.9v-.5c0-1-1-1.7-2-1.7H61.9z"/>
</svg>
