<svg xmlns="http://www.w3.org/2000/svg" width="100" height="100" viewBox="0 0 100 100">
    <g fill="#12213F">
        <path d="M50 5c24.9 0 45 20.1 45 45S74.8 95 50 95C25.1 95 5 74.9 5 50S25.1 5 50 5m0-5c-6.7 0-13.3 1.3-19.5 3.9-3 1.3-5.8 2.8-8.5 4.6-2.6 1.8-5.1 3.8-7.4 6.1-2.3 2.3-4.3 4.8-6.1 7.4-1.8 2.7-3.4 5.5-4.6 8.5C1.3 36.7 0 43.3 0 50s1.3 13.3 3.9 19.5c1.3 3 2.8 5.8 4.6 8.5 1.8 2.6 3.8 5.1 6.1 7.4 2.3 2.3 4.8 4.3 7.4 6.1 2.7 1.8 5.5 3.4 8.5 4.6 6.2 2.6 12.7 3.9 19.5 3.9 6.7 0 13.3-1.3 19.5-3.9 3-1.3 5.8-2.8 8.5-4.6 2.6-1.8 5.1-3.8 7.4-6.1s4.3-4.8 6.1-7.4c1.8-2.7 3.4-5.5 4.6-8.5 2.6-6.2 3.9-12.7 3.9-19.5s-1.3-13.3-3.9-19.5c-1.3-3-2.8-5.8-4.6-8.5-1.8-2.6-3.8-5.1-6.1-7.4-2.3-2.3-4.8-4.3-7.4-6.1-2.7-1.8-5.5-3.4-8.5-4.6C63.3 1.3 56.7 0 50 0z"/>
        <g fill-rule="evenodd" clip-rule="evenodd">
            <path d="M55.2 39.1h5.4s2 5.1 2.9 7.5c1.7 4.6 5.2 14.4 5.2 14.4h-5.6l-1.3-4h-7.6l-1.3 4h-5.5l7.8-21.9zm2.7 5.7l-2.6 8.3h5.1l-2.5-8.3zM31.3 61V39.1h5.4v17.3h9.8L45 61H31.3z"/>
        </g>
    </g>
</svg>
