<svg xmlns="http://www.w3.org/2000/svg" width="100" height="100" viewBox="0 0 100 100">
    <path fill="#E7430F" d="M97.7 42.5c0 26.8-24.5 57.5-54.9 57.5C18.9 100 2 83 2 57.1 2 31.3 25.6 0 60 0c19.3 0 37.7 15.1 37.7 42.5z"/>
    <linearGradient id="a" gradientUnits="userSpaceOnUse" x1="297.601" y1="-319.123" x2="297.601" y2="-270.2" gradientTransform="matrix(1 0 0 -1 -247.5 -270)">
        <stop offset="0" stop-color="#F4AB82"/>
        <stop offset="1" stop-color="#FFF" stop-opacity="0"/>
    </linearGradient>
    <path opacity=".8" fill="url(#a)" d="M90 26.1c0 21.2-79.8 32-79.8 13.7C10.2 28.3 25.5.2 59.9.2 79.1.2 90 15.1 90 26.1z"/>
    <g fill="#FFF">
        <path d="M52.09 33.257c.255-.044.478-.095.7-.183.166-.065.334-.157.493-.293.24-.203.416-.483.516-.753.103-.268.166-.554.225-.896l.004-.013.003-.015V31.093l.604-3.626c.053-.318.084-.58.076-.813-.003-.174-.03-.335-.1-.473-.102-.21-.315-.325-.54-.35-.224-.027-.468.004-.755.055l-6.11 1.076h.003c-.18.033-.333.063-.484.108-.22.066-.468.196-.668.385-.2.187-.354.388-.548.65l-.004.005-14.458 20.43 2.995-17.99s.217-1.304-1.013-1.088l-.235.04h-.005l-5.525.976-.378.066-3.717.657c-.256.044-.48.094-.702.182-.164.066-.333.157-.492.293-.24.204-.415.484-.518.756-.106.277-.17.57-.23.927l-.604 3.633c-.052.318-.084.58-.08.812.006.174.033.335.102.473.103.212.314.327.54.35.226.028.467-.003.757-.053l2.48-.438-5.367 32.242-2.48.435c-.256.05-.48.098-.7.19-.166.062-.336.156-.493.29-.24.202-.415.483-.517.756-.108.273-.17.568-.23.928l-.605 3.63c-.052.316-.083.583-.076.814.004.173.03.334.1.472.102.214.315.33.538.352.226.026.47-.004.757-.053l3.684-.655c.01 0 .022 0 .034-.003l6.143-1.082s1.23-.217 1.447-1.522l3.013-18.103 8.706 16.13c.104.192.183.346.262.476.06.103.12.192.198.272.116.115.29.194.48.205.19.016.39-.01.643-.057l6.222-1.096c.256-.048.48-.098.7-.187.166-.063.334-.157.493-.292.242-.202.416-.482.52-.756.106-.274.17-.57.23-.925l.603-3.634c.054-.32.083-.586.07-.82-.01-.175-.043-.336-.117-.47-.107-.207-.317-.316-.535-.342-.225-.026-.462.002-.735.05l-1.495.263-8.672-14.68 12.62-17.31 2.226-.393zM86.347 31.44c-.155-2.2-.584-3.96-1.275-5.335-1.04-2.065-2.69-3.248-4.844-3.757-2.154-.51-4.804-.363-7.9.183l-13.072 2.306c-.274.048-.506.1-.732.188-.17.066-.34.156-.503.29-.246.202-.426.487-.53.76-.11.28-.174.573-.236.93v.003l-.604 3.63c-.053.318-.084.58-.076.813.004.174.03.335.1.473.103.21.315.327.54.35.224.028.468-.002.755-.052l2.48-.436-5.365 32.24-2.48.436c-.258.05-.48.098-.703.186-.164.065-.333.157-.49.293-.243.2-.415.482-.52.755-.105.273-.168.565-.228.92v.007l-.606 3.63c-.048.302-.08.557-.07.79.003.167.03.328.096.466.1.21.304.333.525.367.226.037.472.01.77-.037l12.957-2.286c2.568-.452 4.97-1.12 7.196-2.184 1.667-.797 3.236-1.824 4.683-3.146 2.17-1.987 4.048-4.632 5.597-8.127 1.55-3.496 2.782-7.846 3.692-13.303v-.003l.002-.005c.776-4.683 1.05-8.408.84-11.345zm-9.792 12.79l-.002.004c-.53 3.196-1.11 5.815-1.777 7.947-.5 1.604-1.047 2.93-1.647 4.023-.908 1.643-1.914 2.75-3.137 3.563-1.22.81-2.688 1.318-4.465 1.633l-1.74.306 5.1-30.628 1.736-.306c1.564-.277 2.824-.298 3.8-.014.734.214 1.31.596 1.76 1.186.673.883 1.05 2.258 1.118 4.27.063 2.012-.19 4.65-.747 8.017z"/>
    </g>
</svg>
