<svg xmlns="http://www.w3.org/2000/svg" width="100" height="100" viewBox="0 0 100 100">
    <path fill="#FFF" d="M70.28 5.61l-.44 1.352-.34.938c1.7 1 19.4 12.2 17.3 40.2l-6.8.1s.018-.104.046-.297l-.077.297s-.748 3.305-.858 3.7H86.1c-8.06 32.342-43.934 42.99-44.284 43.095l.378 2.207.006-.002c43-13.9 48.9-45.3 48.9-45.3h7.7l-.05.168c.026-.057.053-.11.078-.168l.57-3.9H91.7C96.273 20.16 72.423 6.745 70.28 5.61z"/>
    <path fill="#EF3E42" d="M86.1 51.9h-7s-4.5 28.3-37.7 40.9l.4 2.2.016-.006c.35-.102 36.223-10.752 44.284-43.094zM71.7 2.5l1-2.5L63 3.5 67 14l1-2.4c15.483 9.196 12.475 33.36 12.046 36.303-.028.194-.046.297-.046.297l6.8-.1c2.1-28-15.6-39.2-17.3-40.2l.34-.938.46-1.262.045.024C72.485 6.86 96.273 20.16 91.7 48h7.7c.1 0 4.8-32.6-27.7-45.5z"/>
    <path fill="#EF3E42" d="M91.1 51.9s-5.9 31.4-48.9 45.3l.3 2s44.875-6.086 56.252-47.132l.05-.168H91.1z"/>
    <path fill="#005286" d="M38.3 43.1h4.4c2 0 4.9.5 2.6 7.3-1.3 3.8-3.9 7.7-7.7 7.7h-4.5l5.2-15M27.3 62h9.6c7.3 0 11.6-7.1 13.3-12 1.5-4.3 2.2-10.9-5.3-10.9h-9.8L27.3 62zm26.4 0H49l7.9-22.8h15.7l-1.4 4H60.1l-1.8 5.1h9.8l-1.4 4.1H57L53.7 62"/>
        <path fill="#FFF" d="M29.964 94.54l.44-1.352.34-.938c-1.7-1-19.4-12.2-17.3-40.2l6.8-.1s-.017.103-.045.296c.048-.192.076-.297.076-.297s.747-3.306.857-3.7h-6.988C22.207 15.907 58.08 5.26 58.43 5.154l-.38-2.207-.005.002c-43 13.9-48.9 45.3-48.9 45.3h-7.7c.017-.057.034-.11.05-.168-.025.057-.052.11-.077.168l-.57 3.9h7.698C3.972 79.99 27.823 93.405 29.964 94.54z"/>
        <path fill="#EF3E42" d="M14.146 48.25h7s4.5-28.3 37.7-40.9l-.4-2.2-.016.006c-.35.103-36.223 10.752-44.284 43.094zM28.545 97.65l-1 2.5 9.7-3.5-4-10.5-1 2.4C16.762 79.353 19.77 55.19 20.2 52.246c.028-.193.046-.297.046-.297l-6.8.1c-2.1 28 15.6 39.2 17.3 40.2l-.34.94-.46 1.26c-.01-.005-.032-.017-.045-.022C27.76 93.29 3.973 79.988 8.546 52.15h-7.7c-.1 0-4.8 32.6 27.7 45.5z"/>
        <path fill="#EF3E42" d="M9.146 48.25s5.9-31.4 48.9-45.3l-.3-2S12.87 7.036 1.496 48.082c-.017.057-.034.11-.05.168h7.7z"/>
</svg>
