<svg xmlns="http://www.w3.org/2000/svg" width="100" height="100" viewBox="0 0 100 100">
    <path d="M81.908 100l-23.6-67.006h-1.94l-6.134 17.703 7.297 22.047H42.704L37.966 86.41h23.99l4.58 13.59"/>
    <path fill="#0F0" d="M41.152 32.994L18.092 100H33.31l23.06-67.006"/>
    <path d="M54.344 13.51c0 2.95-2.014 4.5-4.265 4.5-2.408 0-4.425-1.628-4.425-4.5 0-2.952 2.017-4.66 4.424-4.66 2.25 0 4.264 1.708 4.264 4.66m8.31-.08C62.654 6.054 56.986 0 50 0c-6.99 0-12.654 5.977-12.654 13.43 0 7.376 5.665 13.433 12.655 13.433 6.986 0 12.654-5.982 12.654-13.433"/>
</svg>
