<svg xmlns="http://www.w3.org/2000/svg" width="100" height="100" viewBox="0 0 100 100">
    <linearGradient id="a" gradientUnits="userSpaceOnUse" x1="17.121" y1="79.743" x2="89.255" y2="19.215">
        <stop offset="0" stop-color="#C52444"/>
        <stop offset="1" stop-color="#DE2B4D"/>
    </linearGradient>
    <path fill="url(#a)" d="M84.2 21.6c-1.1-7.2-3.1-12.5-6.5-16.1C74.6 2.1 70.1.3 64.2 0c-5.6-.3-12.3.8-20.5 2.4C36.5 3.9 30.9 5.9 27 8c-3.8 2.1-6.4 4.6-8.3 7.9-1.8 3.3-2.9 7.4-3.6 12.7-.7 5.4-.8 12.4-.8 20.6 0 4.5.1 8.6.2 12.2.2 3.6.4 6.8.9 9.7.4 2.9 1.4 5.4 2.3 7.6.9 2.2 2 4.2 3.4 5.9 6.4 6.9 14.7 8.7 15.7 9l-.4 6.5L48 96.5l2.6.5c5.1 1 9.7 1.5 13.6 1.3 5.9-.3 10.3-2 13.5-5.4C81 89.4 83 84.1 84.2 77c1.2-7.2 1.4-16.4 1.5-27.6 0-11.3-.3-20.5-1.5-27.8z"/>
    <g>
        <path fill="#FFF" d="M43.9 73.4c-1-.1-1.9-.3-2.7-.4-.8-.1-1.5-.3-2.2-.4-.6-.2-1.2-.3-1.7-.5s-.9-.3-1.3-.5l20.3-26.1c.1.8.1 1.6.2 2.4.1.9.1 1.8.1 2.7 0 .9.1 1.9.1 2.9v3.1c0 2.1 0 4.1-.1 5.9s-.2 3.5-.3 4.9c-.2 1.4-.4 2.7-.6 3.6-.3 1-.6 1.6-1 2-.2.2-.6.4-1.2.6-.6.1-1.3.2-2.2.3-.9 0-1.9 0-3.2-.1-1.1 0-2.5-.2-4.2-.4m-11-9.5c0-.6-.1-1.2-.1-1.9 0-.6-.1-1.3-.1-2v-2.2-2.3c0-1.8 0-3.6.1-5.2 0-1.6.1-3.1.2-4.5.1-1.3.3-2.5.4-3.4.2-.9.4-1.6.7-2 .2-.3.6-.6 1.2-.9.6-.2 1.3-.5 2.2-.6.9-.2 1.9-.3 2.9-.5 1.1-.1 2.3-.2 3.5-.3.7 0 1.4-.1 2.1-.1h2.1c.7 0 1.3 0 1.9.1.6 0 1.2.1 1.7.2L32.9 63.9m11-35.1c-1.9.2-3.7.4-5.3.7-1.6.3-3 .7-4.2 1.1-1.2.5-2.5 1.1-3.5 1.8-1 .8-1.8 1.7-2.5 2.8-.6 1-1.1 2.2-1.5 3.5-.4 1.3-.5 2.8-.7 4.4-.2 1.6-.3 3.4-.3 5.4-.1 2-.1 4.1-.1 6.4 0 2.3.1 4.4.2 6.4s.3 3.8.5 5.4c.2 1.7.5 3.2.8 4.6.4 1.4.9 2.6 1.5 3.7.7 1.2 1.5 2.2 2.5 3 1 .8 2.1 1.5 3.3 2.1 1.3.6 2.6 1 4.1 1.4 1.6.4 3.3.8 5.1 1.1 1.9.4 3.7.7 5.5.9 1.8.2 3.4.3 5 .3 1.6-.1 3-.3 4.3-.8 1.3-.5 2.5-1.3 3.5-2.4 1-1.1 1.7-2.4 2.3-3.9.6-1.6 1-3.3 1.3-5.3.3-2 .5-4.2.6-6.7.1-2.4.1-5.1.1-8 0-2.9 0-5.6-.1-8.1s-.2-4.7-.5-6.7-.7-3.8-1.2-5.4c-.6-1.6-1.3-2.9-2.2-4-1-1.2-2.2-2.1-3.5-2.8-1.3-.6-2.8-1.1-4.4-1.3-1.6-.2-3.2-.3-5-.2-1.8.2-3.6.4-5.6.6"/>
    </g>
</svg>
